<?xml version="1.0" encoding="UTF-8"?><svg id="Layer_2" xmlns="http://www.w3.org/2000/svg" viewBox="0 0 131.02 151.56"><defs><style>.cls-1{stroke:#a7d5a0;stroke-width:14px;}.cls-1,.cls-2{fill:none;stroke-miterlimit:10;}.cls-2{stroke:#70adcc;stroke-linecap:round;stroke-width:12px;}</style></defs><g id="Layer_1-2"><g><path class="cls-1" d="m57.6,122.82c0-9.54,4.44-18.07,11.4-23.7-6.07-5.35-9.89-13.11-9.89-21.74,0-14.51,10.78-26.54,24.92-28.83.19-1.5.3-3.02.3-4.57,0-20.42-16.88-36.97-37.71-36.97S8.91,23.55,8.91,43.97c0,10.92,4.84,20.74,12.52,27.51-8.81,7.12-14.43,17.91-14.43,29.98v24.61c0,8.12,6.2,14.96,14.42,15.91l1.25.14c11.61,1.34,23.31,1.7,34.98,1.08-.02-.31-.04-.62-.04-.93v-19.45Z"/><path class="cls-2" d="m104.85,50.64c11.13,2.71,17.36,11.44,19.6,22.35,2.35,11.43-2.66,23.24-12.66,29.8l4.69,4.42c4.02,3.79,6.29,9.02,6.29,14.48v23.87"/></g></g></svg>