<?xml version="1.0" encoding="UTF-8"?><svg id="Layer_2" xmlns="http://www.w3.org/2000/svg" viewBox="0 0 465.7 398.19"><defs><style>.cls-1,.cls-2{fill:#a7d5a0;}.cls-3,.cls-4{fill:none;}.cls-3,.cls-4,.cls-2{stroke-miterlimit:10;}.cls-3,.cls-2{stroke:#a7d5a0;stroke-width:14px;}.cls-4{stroke:#70adcc;stroke-linecap:round;stroke-width:12px;}.cls-5{fill:#70adcc;}</style></defs><g id="Layer_1-2"><path class="cls-2" d="m399.08,227.11c-1.1,0-2.22-.21-3.29-.67l-139.64-58.78c-14.25-6-33.4-6-47.64,0l-138.58,58.33c-4.33,1.82-9.31-.21-11.13-4.54s.21-9.31,4.54-11.13l138.58-58.33c18.48-7.78,42.36-7.78,60.84,0l139.64,58.78c4.33,1.82,6.36,6.81,4.54,11.13-1.37,3.25-4.52,5.2-7.84,5.2Z"/><path class="cls-3" d="m230.84,339.15c0-9.54,4.44-18.07,11.4-23.7-6.07-5.35-9.89-13.11-9.89-21.74,0-14.51,10.78-26.54,24.92-28.83.19-1.5.3-3.02.3-4.57,0-20.42-16.88-36.97-37.71-36.97s-37.71,16.55-37.71,36.97c0,10.92,4.84,20.74,12.52,27.51-8.81,7.12-14.43,17.91-14.43,29.98v24.61c0,8.12,6.2,14.96,14.42,15.91l1.25.14c11.61,1.34,23.31,1.7,34.98,1.08-.02-.31-.04-.62-.04-.93v-19.45Z"/><path class="cls-4" d="m278.09,266.97c11.13,2.71,17.36,11.44,19.6,22.35,2.35,11.43-2.66,23.24-12.66,29.8l4.69,4.42c4.02,3.79,6.29,9.02,6.29,14.48v23.87"/><path class="cls-2" d="m116.33,390.95l-1.34.18c-4.59.61-8.71-3.51-9.21-9.2l-14.82-170.91,17.97-2.4,14.82,170.91c.49,5.69-2.83,10.81-7.42,11.42Z"/><path class="cls-2" d="m350.6,386.92l1.34.18c4.59.62,8.71-3.5,9.21-9.2l14.71-168.77-17.97-2.41-14.71,168.77c-.5,5.69,2.82,10.81,7.41,11.43Z"/><g><path class="cls-5" d="m57.35,97.57c-.9,1.3-1.12,2.9-.67,4.81.45,1.91,1.42,4.22,2.93,6.95,1.51,2.73,2.91,4.78,4.2,6.15,1.29,1.37,2.84,2.1,4.63,2.18,1.79.09,4.29-.75,7.48-2.52l12.21-6.74,3.61,6.54c3.81-2.63,7.66-5.22,11.57-7.7,4.91-3.12,9.92-6.05,15.03-8.78l-8.22-14.89c-2.1-3.81-4.21-6.41-6.32-7.8-2.72-2-6.91-1.56-12.59,1.3l-27.2,15.01c-3.09,1.71-5.31,3.53-6.65,5.48Z"/><path class="cls-5" d="m38.32,155.71c4-4.08,8.43-7.71,12.95-11.2,2.4-1.86,4.82-3.69,7.25-5.5-.34-.09-.69-.18-1.04-.28-9.62-2.82-16.89-8.69-21.81-17.6-4.92-8.91-5.86-17.8-2.82-26.67,3.04-8.86,8.47-15.46,16.3-19.78,5.97-3.3,11.91-4.72,17.8-4.28,5.89.45,9.81.13,11.77-.95,3.29-1.82,5.45-6.57,6.45-14.25.55-4.6.13-8.17-1.26-10.69-1.39-2.52-4.05-4.05-7.97-4.58-15.25-2.07-28.96.25-41.12,6.96-15.66,8.64-26.23,21.63-31.72,38.97-5.49,17.34-3.71,34.2,5.33,50.58,6.12,11.1,14.25,19.65,24.36,25.68,1.68-2.24,3.52-4.39,5.52-6.42Z"/><path class="cls-1" d="m118.27,98.09c-6.17,3.03-12.84,6.85-19.67,11.68-2.43,1.72-4.72,3.45-6.87,5.18,1.42,2.86,2.84,5.71,4.27,8.57-3.59,4.4-8.28,8.18-14.07,11.34-3.5,1.91-6.51,2.69-7.53,2.98-6.64,1.87-12.37,1.61-15.89,1.18-3.63,1.96-7.88,4.64-12.25,8.29-6.19,5.18-10.53,10.55-13.47,14.83,3.15,1.73,7.65,3.89,13.31,5.61,15.59,4.75,28.37,2.68,31,2.23,6.77-1.18,13.34-3.5,19.7-6.97,17.69-9.65,28.42-21.42,32.21-35.3,1.26-4.63.97-8.6-.89-11.94l-9.86-17.67Z"/><path class="cls-5" d="m143.33,87.28c8.04-2.9,16.18-5.76,24.49-7.73.56-2.25,1.87-4.53,3.95-6.83,3.28-3.63,6.81-5.72,10.6-6.27,3.78-.55,6.81-.15,9.09,1.18,2.27,1.34,3.61,3.34,4,6.02.25,1.72-.04,3.11-.85,4.17,10.45-.1,20.91-.21,31.36-.16.26-2.39.19-5.03-.23-7.96-1.04-7.16-3.98-13.48-8.82-18.97-9.23-10.31-21.94-14.3-38.12-11.95-14.21,2.06-25.42,8.18-33.63,18.35-7.44,9.21-10.62,20.26-9.58,33.16,2.56-1.06,5.13-2.08,7.75-3.02Z"/><path class="cls-1" d="m227.54,112.13c-.32-2.21-1.47-4.78-3.44-7.71-3.44-4.85-7.02-7.01-10.75-6.47-1.86.27-4.1,1.25-6.71,2.94l-1.82.98c-3.64,1.96-8.84,3.42-15.59,4.4-3.84.56-7.85.01-12.01-1.65-4.16-1.65-6.48-4.11-6.96-7.37l41.4-6.01c1.14-.17,2.23-.45,3.28-.84,4.39-1.66,6.84-4.8,7.77-6.02,1.85-2.44,2.77-4.9,3.25-6.71-5.65-.09-11.42-.11-17.29-.07-4.76.03-9.45.11-14.07.23-3.64,1.1-7.97,2.14-12.9,2.82-5.31.73-10.07.87-14.09.75-.06-.2-.12-.53-.08-.94.05-.42.19-.73.29-.91-3.14.73-5.68,1.42-7.39,1.9-9.63,2.7-17.11,5.75-21.76,7.57-.98.38-1.94.79-2.91,1.19.08.73.17,1.46.27,2.19,1.69,11.65,6.89,21.65,15.59,30.02,4.44,4.35,10.22,7.52,17.35,9.52,7.13,2,15,2.37,23.62,1.12,24.81-3.6,36.46-10.58,34.95-20.95Z"/><path class="cls-1" d="m271.58,79.37c-4.76-.5-8.33-.69-12.66-.91-3.22-.16-7.35-.33-12.19-.43-2.54,8.89-5.09,17.79-7.63,26.68-.73,2.73-1.18,4.8-1.38,6.21-.19,1.41-.05,3.03.44,4.87.89,3.52,4.8,6.21,11.74,8.05,7.16,1.91,12.01,1.55,14.53-1.07,1.33-1.35,2.26-2.66,2.78-3.92.52-1.26,1.12-3.2,1.82-5.82,3.09-10.94,6.18-21.89,9.26-32.83-1.64-.24-3.95-.55-6.72-.84Z"/><path class="cls-5" d="m248.04,78.07c10.09.35,20.22.9,30.25,2.14l6.03-22.66c.39.83,2.7,6.78,6.95,17.83,1.01,2.63,1.94,5.03,2.79,7.23,5.48.98,10.93,2.09,16.35,3.34,9.52,2.19,18.95,4.75,28.3,7.59,1.02-.84,2.09-1.73,3.23-2.67,7.5-6.22,13.14-10.72,16.92-13.49l-5.53,20.78c4.98,1.67,9.93,3.46,14.75,5.52,4.88,2.08,9.62,4.44,14.25,7l16.61-62.45c.69-2.61,1.14-4.63,1.33-6.04.19-1.41.06-3.09-.39-5.04-.78-3.49-4.77-6.2-12-8.12-7.22-1.92-12.21-1.6-14.96.95-8.66,6.46-26.06,19.92-52.2,40.36l-25.2-61.14-.75-1.3c-.47-.98-1.72-2.13-3.74-3.46-2.02-1.33-4.57-2.4-7.64-3.22-7.16-1.91-11.99-1.61-14.48.9-1.37,1.46-2.3,2.83-2.82,4.09-.52,1.26-1.12,3.2-1.82,5.82l-17.55,66c.44.01.88.02,1.32.04Z"/><path class="cls-1" d="m294.06,82.62h0c4.39,10.24,8.34,17.54,10.31,19.46.76.74,1.58,1.34,1.58,1.34,1.45,1.05,3.09,1.82,4.94,2.32,2.56.68,5.12.66,7.69-.06,2.17-.61,3.85-1.35,4.99-1.96,3-1.6,8.45-5.12,15.15-10.16-5.78-2.37-12.51-4.73-20.11-6.69-9.09-2.34-17.4-3.6-24.54-4.24Z"/><path class="cls-1" d="m361.49,100.84c-2.67-.98-5.36-1.93-8.05-2.86l-9.19,34.54c-1.06,3.98-1.56,7.01-1.51,9.1.17,1.63.67,2.98,1.48,4.05.81,1.07,2.11,2.14,3.89,3.23,1.78,1.08,4.32,2.06,7.62,2.94,3.3.88,6.12,1.26,8.46,1.15,4.68-.21,8.07-4.25,10.16-12.09l8.07-30.35c-6.73-3.74-13.69-7.05-20.94-9.71Z"/><path class="cls-1" d="m409.29,127.78c-2.89-2.17-5.82-4.29-8.8-6.35l-19.2,31.08c-1.48,2.4-2.49,4.2-3.02,5.4-.53,1.2-.91,2.76-1.14,4.69-.27,3.57,2.75,7.3,9.06,11.2,6.41,3.96,11.06,5.04,13.98,3.24,1.73-1.01,3.02-2.04,3.88-3.1.86-1.06,2-2.74,3.43-5.04l17.66-28.58c-5.2-4.29-10.46-8.49-15.85-12.53Z"/><path class="cls-5" d="m414.38,132.3c3.53,2.75,7.01,5.56,10.47,8.4l13.81-22.37c1.17-1.9,2.02-3.39,2.54-4.45,1.69-2.97,2.12-5.67,1.29-8.13-.95-2.94-3.83-5.89-8.64-8.86-6.41-3.96-11.12-5.07-14.13-3.33-1.63,1.07-2.87,2.13-3.73,3.19-.86,1.06-2,2.74-3.43,5.04l-12.37,20.03c4.83,3.35,9.56,6.86,14.19,10.47Z"/><path class="cls-5" d="m456.76,59.8c-6.41-3.96-11.15-5.02-14.22-3.18-1.57.97-2.78,1.98-3.64,3.04-.86,1.06-2,2.74-3.43,5.04-1.42,2.3-2.41,4.08-2.97,5.32-.56,1.24-.93,2.85-1.11,4.81-.18,1.96.5,3.83,2.03,5.61,1.53,1.77,3.87,3.64,7.03,5.58,3.15,1.95,5.87,3.21,8.14,3.78,2.27.57,4.23.37,5.88-.62,1.65-.99,2.9-2.01,3.76-3.07.86-1.06,2-2.74,3.43-5.04,1.42-2.3,2.41-4.07,2.97-5.32.56-1.24.9-2.87,1.03-4.86.37-3.51-2.6-7.21-8.91-11.1Z"/></g></g></svg>